<?xml version="1.0" standalone="no"?>
<!DOCTYPE svg PUBLIC "-//W3C//DTD SVG 20010904//EN"
 "http://www.w3.org/TR/2001/REC-SVG-20010904/DTD/svg10.dtd">
<svg version="1.0" xmlns="http://www.w3.org/2000/svg"
 width="1400.000000pt" height="1400.000000pt" viewBox="0 0 1240.000000 1400.000000"
 preserveAspectRatio="xMidYMid meet">

<g transform="translate(0.000000,1754.000000) scale(0.100000,-0.100000)"
fill="#6777ef" stroke="#0000" stroke-miterlimit="10" stroke-width="30px">
<path d="M1 17380 c1 -159 1 -160 26 -180 14 -11 20 -20 13 -20 -7 0 -11 -2
-9 -5 3 -2 15 -2 27 2 16 4 20 11 16 27 -4 17 0 21 21 22 14 1 25 -2 25 -7 0
-6 9 -5 20 1 11 6 20 7 20 3 0 -4 5 -1 10 7 6 10 10 11 10 3 0 -7 8 -13 18
-14 16 0 16 -1 0 -7 -13 -5 -15 -11 -8 -22 7 -11 10 -11 10 -2 0 7 5 10 10 7
6 -3 14 4 19 17 6 13 10 17 10 9 1 -8 -6 -22 -15 -32 -10 -11 -12 -19 -5 -24
6 -3 11 -1 11 5 0 7 7 10 15 7 8 -4 17 -1 21 5 4 7 3 8 -4 4 -7 -4 -12 -3 -12
2 0 14 28 23 35 12 4 -6 3 -14 0 -20 -3 -5 -1 -10 4 -10 6 0 11 8 11 18 0 14
2 15 10 2 6 -10 10 -11 10 -2 0 6 5 12 11 12 5 0 8 -4 5 -9 -3 -5 1 -14 9 -21
13 -11 14 -10 9 4 -6 16 10 23 20 8 3 -5 19 -8 36 -7 17 1 33 -2 36 -7 3 -4
13 -8 22 -7 12 0 11 3 -5 9 -26 11 -21 42 6 39 41 -4 53 1 47 18 -4 10 -3 14
1 9 4 -4 8 -15 9 -24 4 -60 3 -58 20 -34 17 24 37 30 28 9 -3 -8 2 -14 10 -14
8 0 13 4 10 8 -3 5 7 11 20 15 22 5 24 9 15 28 -10 21 -10 21 6 1 14 -18 14
-21 0 -31 -21 -15 3 -38 25 -24 10 6 11 10 3 10 -7 0 -10 7 -6 16 3 8 11 13
18 10 7 -2 19 1 26 7 7 7 6 3 -4 -9 -9 -11 -17 -26 -17 -33 0 -7 9 -3 20 10
l19 24 -4 -22 c-2 -13 0 -23 6 -23 5 0 9 9 9 20 0 11 4 20 10 20 12 0 31 -35
23 -44 -3 -3 -1 -6 6 -6 12 0 11 36 -2 58 -5 7 -4 12 2 12 6 0 11 -5 11 -11 0
-5 4 -8 9 -5 5 3 14 -1 20 -8 10 -12 8 -13 -10 -9 -19 5 -20 4 -10 -14 5 -11
7 -24 3 -28 -4 -5 -1 -5 6 -1 7 5 11 10 8 14 -3 3 2 11 11 17 13 10 15 16 6
26 -9 11 -7 14 12 14 18 0 21 -3 14 -17 -13 -25 -11 -32 6 -18 10 9 15 9 15 1
0 -6 5 -11 11 -11 5 0 7 5 3 12 -5 8 0 9 14 6 12 -4 20 -2 16 3 -3 5 0 9 6 9
6 0 8 5 4 12 -5 7 -2 9 8 5 9 -3 22 0 29 6 7 7 5 2 -5 -10 -11 -13 -16 -23
-12 -23 4 0 2 -10 -4 -22 -10 -21 -10 -21 3 -6 8 10 17 15 21 11 4 -4 4 0 0
10 -6 17 4 22 34 18 6 -1 12 8 12 20 0 21 1 21 19 5 11 -10 24 -15 30 -12 5 4
15 -3 21 -14 6 -11 15 -18 21 -15 5 4 7 11 4 16 -4 5 -1 9 4 9 6 0 11 -4 11
-9 0 -5 14 -14 30 -20 28 -9 30 -8 27 12 -2 12 -2 16 0 8 4 -12 6 -12 14 0 7
11 13 9 29 -11 15 -18 18 -20 13 -6 -4 13 -3 17 5 12 7 -4 12 -2 12 4 0 6 5 8
10 5 6 -3 10 -1 10 5 0 6 5 8 10 5 6 -3 10 -13 10 -21 0 -8 -4 -13 -9 -9 -5 3
-13 1 -16 -5 -4 -6 -1 -9 7 -8 7 2 12 -3 10 -10 -1 -8 2 -11 7 -8 5 4 12 2 16
-4 3 -5 11 -10 18 -10 6 0 2 7 -9 15 -18 14 -17 15 14 10 18 -3 32 -1 32 5 0
5 7 10 16 10 8 0 13 -4 9 -9 -3 -5 0 -13 6 -17 8 -4 9 -3 5 4 -4 7 -1 12 6 12
8 0 6 5 -5 11 -9 6 -15 14 -12 19 8 12 43 -22 36 -35 -2 -5 3 -4 12 4 10 8 20
11 24 8 9 -9 34 13 27 24 -3 5 12 0 32 -12 21 -11 33 -15 27 -7 -8 9 -9 19 -3
28 8 12 10 13 10 1 0 -11 4 -10 19 3 15 13 20 14 24 4 4 -10 8 -10 16 2 9 13
11 13 11 -1 0 -20 -27 -33 -34 -16 -2 7 -5 4 -5 -5 -1 -10 9 -22 21 -29 17 -9
20 -9 16 3 -4 9 2 14 15 16 17 1 19 -1 7 -8 -12 -8 -10 -10 8 -10 19 0 22 4
17 28 l-5 27 11 -25 c7 -14 11 -29 10 -33 -1 -5 3 -6 9 -2 5 3 8 16 4 29 -3
15 1 27 12 37 10 8 15 9 11 2 -7 -12 7 -26 31 -29 8 -2 11 3 8 12 -3 9 -1 12
4 9 6 -3 10 -14 10 -25 0 -14 -5 -17 -22 -12 -14 3 -19 2 -14 -6 12 -19 36
-14 46 11 5 12 9 16 9 8 1 -11 4 -11 16 -1 8 7 15 8 15 2 0 -5 16 -9 35 -9 22
1 35 6 35 15 0 7 5 10 10 7 6 -4 8 -10 6 -14 -3 -4 -7 -19 -10 -34 -4 -24 -3
-26 15 -17 11 6 23 8 28 5 5 -3 19 10 31 28 12 17 19 24 17 15 -6 -17 18 -33
28 -18 3 4 -1 11 -7 13 -9 4 -8 6 2 6 8 0 26 -9 40 -20 21 -17 21 -20 5 -14
-15 5 -17 3 -8 -6 18 -18 35 -2 22 22 -7 14 -7 24 0 33 6 7 7 17 3 21 -4 5 -1
5 6 1 7 -5 11 -15 8 -23 -5 -12 -1 -14 20 -10 20 3 28 -1 36 -19 12 -26 23
-30 34 -12 4 6 3 8 -4 4 -11 -7 -28 11 -19 20 3 3 20 7 39 9 18 2 25 1 16 -1
-10 -3 -18 -9 -18 -13 0 -9 39 -6 70 7 14 5 26 6 28 1 2 -5 9 -6 15 -2 7 3 2
-5 -10 -19 -13 -13 -23 -28 -23 -33 0 -5 7 1 16 13 13 19 18 21 32 10 14 -11
15 -10 9 5 -6 17 -2 18 48 13 34 -3 55 -1 55 5 0 6 -5 7 -12 3 -7 -5 -8 -3 -3
6 6 10 10 10 20 -3 7 -10 16 -13 25 -7 8 5 18 6 23 3 4 -3 11 4 13 14 5 19 44
30 44 13 0 -5 6 -8 13 -6 6 1 9 1 4 -1 -15 -9 -6 -43 16 -53 20 -10 20 -10 5
3 -10 8 -18 20 -18 28 0 11 2 11 10 -1 8 -12 10 -12 10 5 1 19 2 19 10 -1 13
-33 57 -55 57 -29 0 7 -8 10 -18 8 -9 -3 -20 1 -25 8 -5 9 -2 11 9 6 12 -4 14
-2 10 11 -6 15 -5 15 10 3 10 -8 20 -11 24 -7 3 3 1 6 -5 6 -6 0 -9 7 -6 15 4
8 10 15 16 15 5 0 7 -4 4 -8 -3 -5 4 -16 14 -25 17 -15 19 -14 23 1 4 13 5 11
6 -5 0 -12 -5 -24 -11 -26 -7 -3 -1 -6 15 -6 28 -1 37 13 15 22 -8 3 -5 6 5 6
10 1 15 6 12 11 -11 18 5 31 26 20 20 -11 26 -30 8 -30 -5 0 -7 5 -4 10 3 6 1
10 -4 10 -14 0 -14 -37 -1 -45 6 -3 10 -1 10 5 0 6 4 9 8 6 5 -3 15 5 22 19
14 26 40 23 40 -5 0 -29 19 -34 39 -9 15 19 19 20 24 6 4 -12 1 -15 -11 -11
-14 5 -15 4 -2 -4 8 -6 19 -7 25 -3 5 5 18 7 28 6 9 -2 15 1 11 6 -8 13 10 11
24 -3 17 -17 15 2 -3 22 -13 14 -13 17 0 17 8 0 12 -4 9 -8 -6 -10 37 -40 48
-33 5 4 7 13 4 21 -4 9 -2 11 7 6 6 -4 15 -8 20 -9 4 -1 10 -2 15 -3 4 -1 0
-6 -8 -11 -12 -8 -12 -10 5 -10 17 0 18 -2 5 -10 -11 -8 -7 -9 14 -4 25 6 28
5 22 -11 -6 -15 -4 -16 9 -5 15 12 14 15 -5 25 -21 11 -21 12 -4 19 11 4 20 2
22 -4 3 -8 8 -8 18 1 8 6 11 16 7 22 -4 7 0 8 11 4 10 -4 20 -7 23 -7 3 0 -2
-11 -11 -25 -15 -23 -15 -24 1 -18 10 3 27 13 38 21 l20 14 -20 -6 c-13 -5
-17 -4 -10 3 11 11 65 3 65 -10 0 -5 -6 -6 -13 -3 -8 3 -14 -1 -14 -8 0 -7 10
-13 23 -13 12 0 20 3 17 8 -9 15 8 28 22 17 9 -8 15 -8 20 0 9 15 -3 30 -25
30 -14 0 -18 5 -13 16 5 13 7 13 14 2 5 -7 9 -8 9 -3 0 6 5 2 11 -9 9 -15 13
-16 20 -5 7 9 7 5 3 -13 -5 -23 -2 -28 20 -34 15 -3 23 -11 19 -18 -3 -6 0 -5
8 3 11 10 11 15 1 18 -17 6 -15 23 3 23 8 0 15 -4 15 -8 0 -5 6 -17 14 -27 13
-18 13 -17 11 9 -2 17 1 26 8 23 7 -2 11 -13 10 -23 -1 -13 4 -20 17 -20 10 0
17 2 15 5 -3 2 0 10 6 18 9 9 8 13 0 13 -6 0 -11 -6 -11 -12 0 -15 -34 31 -36
49 -4 23 23 14 30 -9 l7 -23 9 21 c10 25 33 44 24 20 -6 -15 6 -21 29 -17 4 1
3 -8 -3 -19 -9 -16 -8 -19 6 -13 11 4 15 2 11 -4 -3 -5 0 -10 8 -10 8 0 15 3
15 7 0 4 7 7 15 7 11 0 12 -4 5 -11 -13 -13 -13 -39 0 -31 6 4 8 11 5 16 -4 5
-2 9 4 9 5 0 12 -6 15 -12 3 -7 4 -4 3 7 -1 13 4 20 15 20 9 0 20 4 24 8 4 4
13 2 21 -5 8 -6 13 -7 11 -2 -2 5 0 9 3 9 3 0 13 6 22 14 11 9 17 10 17 2 0
-6 -4 -11 -10 -11 -5 0 -14 -8 -19 -18 -7 -14 -6 -18 9 -18 10 0 16 6 13 12
-5 13 14 14 32 2 6 -4 17 -2 25 4 12 8 12 9 -2 4 -27 -8 -30 9 -5 30 21 19 21
19 7 0 -12 -16 -12 -18 -1 -11 9 5 19 2 27 -10 11 -15 11 -20 -3 -30 -13 -10
-13 -14 -3 -20 8 -5 11 -4 6 3 -3 6 3 13 14 17 18 6 18 8 5 21 -20 20 -19 23
7 16 14 -3 19 -1 14 6 -3 6 -2 13 3 17 6 3 8 -3 6 -15 -2 -11 0 -22 6 -25 5
-4 9 4 9 17 0 18 2 20 9 8 6 -8 7 -18 5 -22 -3 -4 0 -8 5 -8 6 0 11 5 11 11 0
5 4 7 10 4 6 -3 10 -2 10 4 0 5 -8 12 -17 14 -14 4 -13 5 3 6 25 1 35 -17 27
-49 -4 -16 -8 -18 -14 -8 -6 9 -9 9 -9 1 0 -24 20 -23 30 1 7 19 14 24 26 19
16 -6 16 -7 1 -12 -11 -4 -13 -11 -8 -19 6 -11 10 -10 16 5 5 10 9 23 10 28 0
6 6 9 13 8 7 -2 11 2 9 8 -1 6 6 16 16 22 15 10 21 8 35 -8 20 -23 42 -30 42
-14 0 8 5 8 15 -1 8 -7 13 -16 10 -19 -2 -4 2 -8 9 -8 10 0 12 8 5 29 -5 17
-4 26 2 23 5 -4 9 -14 9 -23 0 -12 3 -13 12 -4 7 7 16 12 21 12 5 0 1 -7 -7
-16 -9 -8 -16 -20 -16 -27 0 -6 6 -3 13 7 7 10 22 16 33 14 11 -2 18 2 17 10
-2 6 3 12 11 12 8 0 17 6 19 13 3 6 6 2 6 -11 1 -16 -3 -21 -11 -16 -9 5 -9 2
1 -9 7 -9 21 -17 30 -16 12 0 11 2 -4 9 -11 5 -15 9 -8 9 7 1 10 7 7 14 -3 8
2 20 11 27 13 11 14 10 9 -4 -3 -9 -1 -22 5 -30 6 -7 8 -15 5 -18 -3 -3 0 -9
6 -13 6 -3 10 -3 9 2 -3 18 2 33 11 33 6 0 10 -8 10 -18 0 -14 8 -18 36 -19
20 0 31 3 24 7 -6 4 -11 11 -10 16 1 5 -4 10 -11 13 -8 2 -10 -2 -6 -13 4 -9
2 -16 -3 -16 -6 0 -10 9 -10 20 0 11 4 20 9 20 5 0 17 3 27 7 10 3 15 2 12 -3
-10 -16 16 -49 39 -50 21 -1 24 18 7 49 -4 6 2 3 13 -8 11 -11 19 -23 17 -26
-2 -3 3 -6 11 -6 10 0 12 4 5 12 -7 9 -6 16 5 25 12 10 15 10 15 -3 0 -10 6
-13 20 -10 19 5 20 6 3 20 -13 11 -11 11 9 -1 18 -10 29 -12 33 -5 5 7 11 7
19 0 7 -6 16 -8 19 -4 4 3 7 1 7 -6 0 -7 5 -9 10 -6 6 3 10 1 10 -5 0 -7 -6
-10 -14 -7 -8 3 -16 0 -19 -6 -3 -7 5 -12 18 -12 13 0 23 2 23 5 0 3 0 12 1
20 1 13 2 13 11 0 5 -8 10 -10 10 -4 0 6 10 10 23 9 30 -3 42 5 26 17 -11 8
-10 9 2 5 9 -3 22 0 29 6 10 9 11 9 6 0 -4 -7 -2 -13 3 -13 6 0 11 -7 11 -15
0 -8 -5 -15 -12 -15 -6 0 -9 -2 -6 -5 9 -10 38 7 31 18 -3 6 -1 7 6 3 6 -4 14
-1 17 8 5 12 8 12 23 -2 9 -9 16 -24 13 -32 -2 -12 5 -16 27 -15 21 0 29 5 28
17 -1 16 -3 16 -19 1 -10 -9 -18 -12 -18 -6 0 11 32 43 43 43 4 0 7 -8 7 -18
0 -10 7 -27 15 -38 13 -18 14 -17 6 11 -6 22 -4 34 6 43 11 11 13 9 9 -12 -2
-14 2 -30 9 -36 11 -10 13 -8 10 9 -2 11 1 23 6 26 5 4 6 11 3 17 -5 7 -2 8 5
4 7 -5 10 -14 7 -22 -3 -8 1 -14 10 -14 8 0 13 4 10 8 -2 4 4 14 16 21 11 7
17 8 14 2 -4 -5 -1 -13 5 -16 5 -4 8 -13 5 -21 -7 -18 2 -18 20 1 12 12 12 15
2 15 -11 0 -11 2 0 9 7 4 12 14 10 22 -2 8 4 14 12 14 9 0 14 -7 12 -19 -3
-17 -2 -18 13 -6 14 11 18 11 33 -3 10 -11 12 -17 4 -17 -7 0 -12 5 -12 10 0
6 -5 10 -11 10 -5 0 -7 -4 -4 -10 3 -5 -3 -10 -14 -10 -25 0 -27 -13 -5 -34
16 -17 39 -12 28 5 -3 5 -9 7 -14 4 -5 -3 -11 -1 -14 4 -8 13 31 20 43 8 6 -6
11 -7 11 -1 0 5 4 3 9 -5 6 -9 11 -10 15 -2 4 6 2 11 -3 11 -6 0 -11 9 -11 21
0 14 4 18 13 12 6 -4 19 -8 27 -8 9 0 15 -9 14 -22 0 -12 3 -20 8 -17 4 3 8
13 8 22 1 15 29 63 31 51 0 -2 2 -12 4 -22 2 -9 0 -15 -5 -12 -4 3 -11 -2 -14
-11 -9 -23 -7 -34 4 -34 6 0 10 8 10 18 0 13 2 14 9 4 6 -10 11 -10 21 3 9 11
22 14 38 10 17 -4 22 -2 16 6 -5 8 -3 9 5 5 7 -5 10 -14 7 -22 -3 -7 0 -16 6
-20 7 -4 8 -3 4 4 -5 8 2 10 24 5 26 -5 32 -2 37 16 5 22 37 29 48 11 3 -5 11
-10 16 -10 6 0 7 4 4 10 -3 6 1 7 9 4 9 -3 16 -11 16 -17 0 -7 4 -7 12 1 10
10 10 15 2 20 -8 5 -7 11 4 22 14 13 15 13 10 -1 -3 -9 -2 -22 3 -30 8 -11 13
-10 29 10 15 18 20 19 20 7 0 -9 6 -16 14 -16 8 0 17 -4 20 -9 4 -5 -2 -7 -13
-4 -10 3 -21 1 -24 -4 -6 -10 40 -10 50 0 3 4 11 3 18 -3 8 -6 11 -2 11 15 0
23 -1 24 -18 8 -18 -16 -18 -16 -12 0 3 9 10 17 16 17 5 0 7 4 3 9 -3 5 -1 13
5 16 6 4 9 1 8 -7 -2 -7 2 -12 8 -11 7 1 10 -6 7 -17 -3 -12 0 -20 6 -20 7 0
9 5 5 12 -5 7 -3 8 6 3 10 -6 9 -11 -5 -22 -18 -12 -17 -13 8 -13 20 0 25 4
22 20 -2 11 1 23 7 26 7 5 8 2 3 -6 -6 -10 -4 -12 10 -6 15 5 16 4 5 -9 -7 -9
-10 -18 -6 -22 3 -3 6 -1 6 5 0 7 5 12 11 12 5 0 8 -4 5 -8 -2 -4 4 -9 16 -9
13 -1 18 3 14 12 -2 7 -1 16 5 19 5 2 4 3 -3 2 -7 -2 -12 -10 -10 -17 3 -12 1
-12 -10 0 -10 11 -10 14 0 18 7 3 19 11 27 19 13 13 14 11 11 -16 -2 -17 1
-33 7 -37 6 -3 7 -1 3 5 -4 7 -2 12 3 12 6 0 11 -5 11 -11 0 -6 7 -9 15 -6 8
4 17 3 19 -2 6 -10 92 -9 102 2 4 4 18 7 31 7 17 0 22 4 17 13 -4 6 2 4 14 -6
20 -19 21 -18 16 5 -2 12 -2 18 2 11 3 -7 12 -9 20 -6 8 3 14 -1 14 -7 0 -9 7
-7 20 5 19 18 22 18 37 2 10 -9 12 -17 6 -17 -6 0 -14 -8 -17 -17 -6 -14 -2
-12 17 5 13 12 27 19 30 15 4 -3 7 -1 7 6 0 8 6 11 16 7 10 -4 22 1 29 11 11
15 15 14 44 -16 17 -17 31 -28 31 -23 0 4 -5 13 -11 19 -9 9 -6 10 11 6 14 -4
21 -2 17 4 -3 5 0 10 8 10 8 0 12 -4 9 -9 -3 -4 0 -8 5 -8 6 0 11 -5 11 -11 0
-6 -9 -8 -22 -4 -18 6 -20 5 -12 -5 8 -8 20 -9 35 -4 13 4 28 7 32 6 5 -2 11
6 14 16 2 10 14 24 26 31 21 13 22 13 4 -6 -12 -13 -13 -20 -5 -21 7 0 23 -3
35 -6 13 -2 22 -2 20 2 -1 4 8 17 21 30 12 12 22 17 22 11 0 -5 5 -7 10 -4 6
3 10 1 10 -5 0 -7 -7 -10 -15 -7 -17 7 -30 -9 -15 -18 6 -4 8 -10 5 -15 -3 -5
3 -13 13 -19 14 -7 27 -5 50 9 18 11 32 22 32 25 0 7 -33 -7 -50 -21 -20 -17
-43 -4 -30 16 7 10 10 11 10 3 0 -7 5 -13 10 -13 6 0 9 3 9 8 -1 4 -1 14 0 22
1 12 3 12 10 2 6 -10 13 -11 34 -1 15 7 24 16 21 20 -3 5 2 6 9 3 8 -3 14 -12
13 -19 -3 -18 -16 -32 -16 -17 0 7 -4 12 -8 12 -4 0 -8 -8 -8 -18 0 -12 9 -19
24 -20 14 -1 21 2 17 8 -4 7 3 9 19 6 31 -5 32 -3 9 15 -14 12 -16 12 -8 0 5
-10 4 -12 -3 -7 -7 4 -12 14 -12 22 0 13 3 13 23 0 12 -8 26 -16 32 -18 5 -2
9 -8 7 -14 -1 -6 5 -11 13 -11 10 0 13 6 9 19 -3 10 -1 18 5 18 6 0 11 -6 11
-14 0 -7 10 -16 23 -20 18 -5 20 -8 7 -16 -9 -6 -10 -10 -3 -10 19 0 24 17 9
29 -7 6 -13 23 -13 37 0 18 2 22 8 13 4 -7 5 -17 2 -22 -3 -4 4 -11 16 -14 12
-3 21 -10 21 -17 0 -6 4 -5 9 3 7 11 3 20 -11 33 -12 10 -17 18 -11 18 13 0
59 -42 65 -61 5 -12 7 -12 19 0 8 8 9 11 2 7 -7 -4 -17 2 -23 13 -9 17 -8 20
6 14 13 -5 15 -3 9 7 -5 9 -4 11 4 6 6 -4 9 -12 6 -17 -4 -5 -2 -9 4 -9 5 0
18 -3 28 -6 15 -5 16 -4 3 6 -12 9 -9 11 15 6 17 -2 37 -1 45 4 8 5 22 5 32
-1 10 -5 18 -6 18 -1 0 10 30 9 48 -2 7 -4 10 -12 7 -17 -9 -13 9 -11 23 3 10
10 14 10 21 0 6 -9 15 -10 33 -3 14 5 29 7 34 3 4 -4 4 -2 0 5 -4 7 -14 10
-24 7 -15 -5 -15 -4 1 6 13 8 22 8 31 1 9 -7 16 -7 26 2 10 9 11 9 6 0 -4 -7
-1 -19 6 -26 10 -12 14 -10 25 10 7 13 11 29 9 36 -1 7 -1 9 1 5 3 -5 12 -8
21 -8 13 0 14 -2 4 -9 -11 -7 -10 -9 3 -15 9 -3 13 -11 9 -17 -4 -8 -3 -9 4
-5 7 4 12 2 12 -3 0 -6 8 -11 18 -10 9 0 12 3 5 5 -7 3 -9 12 -6 21 4 10 2 14
-5 9 -6 -3 -14 -1 -18 5 -4 7 -3 9 4 5 6 -3 15 1 20 10 8 14 10 12 16 -12 6
-22 9 -25 17 -13 8 12 10 12 19 -1 8 -12 10 -10 11 10 1 18 3 20 6 7 4 -15 7
-16 21 -5 9 7 13 8 9 2 -4 -7 1 -15 10 -18 9 -4 20 -2 23 4 5 8 9 6 13 -5 4
-9 3 -13 -3 -10 -16 10 -12 -5 7 -23 16 -16 16 -16 10 1 -6 16 3 22 26 18 5
-1 6 3 2 9 -3 6 -10 8 -15 5 -5 -3 -12 -1 -15 5 -4 6 -3 10 2 9 22 -4 34 2 27
14 -4 6 1 5 12 -4 22 -19 56 -31 99 -35 34 -2 68 12 60 26 -3 5 0 12 6 16 8 4
9 3 5 -4 -5 -8 2 -12 19 -12 17 0 29 7 35 23 6 16 9 17 9 5 1 -9 -3 -19 -9
-23 -5 -3 -7 -13 -4 -23 5 -15 4 -15 -6 -2 -10 13 -11 12 -6 -3 3 -10 6 -22 6
-25 0 -4 4 -1 9 7 7 11 13 12 24 3 11 -9 14 -9 14 3 0 8 -4 12 -9 9 -4 -3 -8
0 -8 7 0 7 11 10 30 7 22 -3 30 -1 30 11 0 14 1 14 10 1 9 -13 10 -13 11 0 1
8 1 18 1 21 -1 4 16 -3 37 -14 29 -16 38 -27 35 -41 -3 -15 -1 -17 9 -7 6 6
12 17 12 23 0 6 6 13 14 16 8 3 11 0 7 -7 -4 -6 -1 -11 8 -11 9 0 15 -3 14 -7
-2 -5 1 -9 7 -10 13 -4 13 30 0 39 -6 5 -3 8 7 8 9 0 20 -4 23 -10 3 -5 1 -10
-4 -10 -6 0 -11 -5 -11 -10 0 -15 22 -8 41 13 9 9 21 17 26 17 6 0 17 -8 24
-17 11 -15 11 -16 -1 -5 -8 6 -19 12 -24 12 -12 -1 23 -30 35 -30 4 0 9 9 12
19 2 10 15 24 28 31 21 10 22 10 7 -3 -10 -8 -14 -18 -10 -22 4 -5 1 -5 -5 -1
-8 4 -13 1 -13 -8 0 -9 9 -16 20 -16 14 0 18 5 14 18 -4 12 -3 13 3 4 7 -10
16 -7 36 12 25 23 32 20 28 -9 -1 -15 51 -13 57 3 2 6 8 9 13 6 6 -3 5 -12 -3
-22 -10 -12 -10 -14 0 -8 6 4 12 2 12 -3 0 -6 5 -11 10 -11 6 0 9 6 8 13 -2 7
9 12 31 13 24 0 37 6 42 20 4 10 8 13 8 6 1 -7 6 -10 11 -7 6 4 7 12 3 18 -4
7 1 5 11 -3 11 -8 14 -16 7 -18 -6 -2 -8 -9 -4 -15 4 -6 0 -8 -10 -4 -9 3 -19
2 -22 -2 -6 -11 23 -36 32 -27 3 3 1 6 -5 6 -7 0 -3 9 7 19 13 13 29 18 46 15
31 -6 25 12 -9 26 l-21 9 21 0 c12 1 25 -6 28 -15 3 -8 11 -12 17 -8 6 3 3 -6
-7 -22 -17 -26 -17 -28 -1 -15 9 7 17 10 17 6 0 -4 6 -2 14 4 11 10 16 9 24
-5 8 -15 9 -15 15 1 4 9 12 13 18 9 8 -4 9 -3 5 5 -8 12 10 41 25 41 17 0 9
-20 -8 -20 -16 -1 -16 -2 1 -15 11 -9 24 -11 30 -6 6 5 22 12 35 16 21 6 22 5
10 -8 -8 -8 -17 -13 -21 -10 -5 2 -8 -1 -8 -7 0 -6 8 -10 18 -8 10 2 16 -2 14
-10 -1 -8 2 -11 8 -7 6 4 9 10 6 13 -3 3 -1 11 4 17 13 15 2 47 -13 38 -6 -4
-7 -1 -2 7 6 10 10 10 19 -2 6 -8 17 -14 24 -12 7 1 8 0 2 -3 -19 -9 -10 -24
10 -18 11 3 20 2 20 -3 0 -6 -11 -9 -25 -7 -27 3 -34 -9 -10 -19 8 -3 15 -1
15 5 0 6 4 8 9 4 6 -3 14 2 19 10 5 10 15 13 25 9 20 -7 23 -25 5 -20 -7 1
-10 1 -5 -1 4 -3 5 -9 2 -13 -3 -5 0 -12 6 -16 8 -4 9 -3 5 4 -5 8 0 12 13 12
12 0 21 5 21 10 0 6 -4 10 -10 10 -5 0 -10 4 -10 9 0 13 35 6 36 -7 1 -7 3
-15 4 -19 1 -5 2 -12 1 -17 -1 -5 5 -4 13 3 11 10 13 18 6 31 -7 13 -6 21 2
26 7 5 9 2 4 -7 -4 -8 0 -5 8 5 9 11 16 14 16 8 0 -7 5 -12 11 -12 6 0 8 8 5
18 -6 16 -5 16 7 0 8 -10 17 -15 20 -11 4 3 7 -1 7 -10 0 -11 8 -17 23 -17 13
0 28 -5 34 -11 8 -8 14 -5 22 10 7 12 18 21 26 21 8 0 12 6 9 13 -3 8 2 14 10
14 11 0 12 -5 6 -17 -5 -10 -7 -20 -4 -23 3 -3 -3 -3 -15 0 -28 7 -26 -1 5
-22 15 -9 24 -12 20 -7 -3 6 -2 13 3 17 6 3 8 13 5 23 -4 10 -2 13 3 7 4 -5
16 -11 27 -13 13 -3 17 1 13 12 -7 18 11 17 30 -1 7 -6 23 -9 35 -6 18 4 20 3
8 -6 -8 -5 -25 -8 -36 -5 -12 3 -24 2 -27 -3 -8 -13 54 -9 79 4 17 10 21 9 21
-5 0 -9 -5 -20 -11 -24 -6 -4 -1 -6 11 -5 12 0 20 4 17 9 -6 10 30 28 56 28
14 0 20 -5 17 -13 -3 -8 -1 -20 4 -28 5 -9 7 1 5 27 -3 37 -1 40 18 37 13 -3
22 -13 23 -25 1 -12 -3 -18 -11 -15 -7 3 -13 -1 -13 -8 0 -7 8 -10 20 -7 15 4
18 2 12 -8 -5 -9 -4 -11 4 -6 6 4 9 11 6 16 -8 13 38 20 52 8 8 -6 16 -8 20
-4 3 3 2 6 -4 6 -6 0 -14 10 -17 23 -5 19 -8 20 -19 7 -17 -21 -37 -23 -37 -4
0 8 5 12 10 9 6 -3 10 -2 10 3 0 5 6 9 13 9 22 1 42 8 49 18 5 6 8 6 8 -2 0
-6 -5 -15 -11 -18 -7 -5 -4 -14 7 -26 18 -20 50 -27 39 -9 -4 6 -11 7 -17 4
-7 -5 -8 -2 -4 5 5 7 14 10 21 7 7 -2 18 1 24 7 6 6 11 7 11 1 0 -5 -5 -15
-11 -21 -6 -6 -9 -19 -6 -29 3 -14 5 -13 6 6 1 21 3 22 12 10 9 -13 10 -13 6
1 -3 9 -2 22 3 29 9 14 70 24 70 11 0 -5 11 -8 25 -7 13 2 22 0 20 -5 -3 -4
-1 -10 5 -14 6 -4 7 -11 4 -17 -4 -7 -2 -8 5 -4 6 4 9 18 7 32 -3 14 -1 22 5
19 5 -4 9 -2 9 3 0 5 7 9 15 9 8 0 15 -4 15 -7 0 -13 -27 -30 -34 -23 -4 4 -4
-1 0 -11 4 -10 10 -13 13 -8 8 12 44 23 81 24 17 1 30 6 30 14 0 13 25 13 37
-1 4 -4 2 -5 -5 -1 -10 6 -13 1 -10 -20 3 -25 8 -29 37 -30 18 -1 37 -7 41
-14 6 -9 9 -9 15 0 4 6 14 9 22 6 9 -4 13 -1 11 6 -3 8 -19 12 -42 10 -35 -3
-37 -2 -27 16 6 11 7 22 4 26 -3 3 -1 6 6 6 9 0 11 -8 8 -21 -4 -16 -3 -18 9
-8 8 6 14 7 14 2 0 -20 42 -7 54 16 11 19 14 21 19 7 4 -9 16 -16 27 -16 12 0
20 -7 20 -17 0 -14 2 -14 20 2 11 10 17 21 15 25 -3 5 4 6 15 3 11 -3 20 -10
20 -15 0 -6 -6 -8 -14 -5 -24 10 -27 -5 -4 -25 21 -18 23 -18 29 -1 3 10 10
18 15 18 17 0 34 16 29 26 -4 5 5 4 19 -2 14 -7 22 -17 19 -25 -3 -8 -1 -14 5
-14 5 0 13 7 16 16 3 9 12 14 20 11 7 -3 18 -1 23 4 6 6 9 1 9 -13 -1 -15 6
-24 19 -26 11 -3 23 -9 26 -14 8 -12 46 6 41 19 -2 4 1 9 7 11 6 2 11 -5 11
-17 0 -11 4 -22 9 -25 4 -3 6 7 3 22 -5 25 -4 26 12 9 22 -21 32 -22 40 -1 5
14 4 15 -8 5 -11 -9 -15 -8 -20 5 -9 22 1 33 24 27 12 -3 24 -19 29 -37 5 -17
10 -23 10 -13 1 11 6 16 14 12 6 -4 3 1 -7 9 -11 9 -15 16 -9 16 6 0 19 3 29
7 11 4 15 3 11 -4 -4 -7 0 -10 10 -9 23 4 64 -15 57 -25 -3 -5 0 -9 5 -9 15 0
14 27 -1 33 -7 2 -10 8 -6 12 9 9 50 -24 43 -34 -2 -4 4 -7 14 -7 10 0 18 6
18 12 0 7 -7 10 -15 6 -11 -4 -13 -2 -6 9 5 8 9 17 9 21 0 12 15 21 15 9 0 -7
6 -11 12 -9 7 3 19 -1 26 -9 8 -7 18 -10 23 -7 12 7 40 -27 33 -38 -9 -14 -43
-8 -53 10 -6 9 -11 12 -11 7 0 -17 22 -35 42 -35 11 0 30 12 43 26 26 27 25
47 0 38 -8 -4 -12 -10 -9 -15 3 -5 0 -9 -6 -9 -7 0 -10 7 -6 15 3 8 1 15 -4
15 -6 0 -10 4 -10 8 0 5 7 9 15 9 8 0 11 -5 8 -10 -4 -6 0 -8 10 -4 10 4 25
10 35 13 14 5 15 4 2 -5 -11 -8 -12 -11 -2 -11 8 0 10 -5 6 -12 -5 -7 -2 -9 7
-6 17 6 41 -16 31 -28 -4 -5 6 2 21 16 l28 24 6 -22 c3 -12 9 -22 14 -22 5 0
5 7 2 17 -4 11 -3 14 5 9 7 -4 12 -3 12 3 0 5 -7 14 -16 19 -11 6 -13 11 -5
16 6 4 11 2 11 -4 0 -6 5 -8 10 -5 6 3 10 -3 10 -14 0 -11 4 -23 10 -26 6 -3
7 1 4 9 -3 9 -1 16 5 16 6 0 11 -6 11 -13 0 -7 10 -13 23 -13 12 -1 31 -3 42
-5 11 -2 21 1 23 6 1 6 -4 10 -10 10 -7 1 -12 7 -10 14 1 7 -2 10 -8 6 -6 -3
-8 -11 -5 -16 4 -5 2 -9 -3 -9 -17 0 -21 13 -11 32 10 18 11 18 36 -2 21 -16
29 -18 41 -8 13 10 14 10 8 1 -12 -21 -16 -54 -5 -48 5 4 7 11 4 16 -4 5 -1 9
4 9 6 0 11 7 11 15 0 8 7 15 16 15 14 0 15 -2 3 -17 -10 -12 -10 -14 -1 -9 7
4 15 1 18 -9 5 -12 9 -13 20 -4 8 7 14 7 14 2 0 -6 11 -8 25 -5 14 2 25 10 25
17 0 16 56 25 70 11 7 -7 10 -6 10 3 0 7 5 9 11 5 8 -4 4 -13 -12 -26 -14 -10
-17 -17 -9 -16 8 2 18 7 21 11 3 4 18 3 32 -2 17 -7 28 -7 32 0 4 5 11 7 16 4
5 -4 9 1 9 11 0 11 -4 14 -12 7 -7 -5 -24 -10 -37 -11 -28 -1 -23 7 9 13 13 3
27 10 32 17 6 10 8 10 8 0 0 -7 5 -10 11 -7 6 4 20 -2 33 -14 l22 -20 2 27 c1
18 -1 23 -7 13 -5 -8 -11 -9 -15 -3 -8 13 13 20 37 14 13 -3 15 -8 7 -17 -8
-10 -8 -15 1 -21 7 -4 10 -3 7 2 -3 5 0 15 8 22 8 7 14 9 14 5 0 -4 5 -2 12 5
15 15 28 15 28 1 0 -5 -4 -8 -9 -5 -5 3 -14 0 -19 -7 -8 -10 -5 -16 11 -26 12
-8 19 -10 15 -6 -7 7 18 65 28 65 3 0 2 -4 -1 -10 -3 -5 2 -10 12 -11 17 0 17
-1 0 -7 -16 -7 -16 -9 6 -28 18 -16 29 -19 42 -12 12 8 20 6 26 -3 5 -8 9 -10
9 -4 0 5 5 4 12 -3 7 -7 19 -12 27 -12 10 0 6 5 -9 13 -14 7 -26 19 -26 27 -1
8 -2 19 -3 24 0 5 -10 -1 -21 -14 -17 -20 -23 -21 -42 -11 -16 8 -17 10 -4 6
13 -4 30 4 49 22 17 15 27 22 23 15 -4 -7 0 -15 9 -18 13 -5 14 -9 4 -15 -19
-11 -6 -21 33 -24 18 -2 35 -4 38 -5 3 0 -2 -5 -10 -10 -9 -6 -10 -10 -3 -10
6 0 20 13 29 29 10 17 21 28 25 25 4 -2 10 0 14 5 3 6 13 7 22 4 12 -5 14 -3
8 7 -5 9 -4 11 3 6 7 -4 12 -14 12 -22 0 -8 4 -14 10 -14 5 0 7 8 4 18 -5 14
-4 14 4 2 6 -8 8 -18 6 -22 -12 -20 25 -5 59 23 20 17 37 26 37 20 0 -6 -6
-11 -12 -11 -9 0 -8 -4 2 -11 13 -8 12 -9 -4 -7 -10 2 -21 -2 -23 -8 -2 -7 5
-10 22 -7 18 4 25 1 25 -10 0 -9 6 -19 13 -23 6 -4 9 -4 5 1 -4 4 -3 16 3 26
7 14 7 19 -3 17 -7 -2 -13 6 -14 17 0 12 1 13 3 4 3 -11 12 -15 28 -11 14 2
22 9 19 14 -3 5 3 4 15 -3 19 -12 19 -15 6 -36 -8 -12 -15 -26 -15 -30 0 -4 5
0 11 9 5 10 17 15 27 12 14 -5 15 -4 2 5 -11 8 -12 11 -2 11 7 0 11 4 8 9 -4
5 3 7 14 4 19 -5 25 -16 20 -38 -1 -5 4 -5 11 2 6 6 19 9 28 5 14 -5 14 -3 3
10 -8 10 -9 19 -3 22 5 3 12 0 14 -6 3 -7 6 71 6 175 l1 187 -6200 0 -6201 0
2 -160z m567 -161 c-3 -8 -7 -3 -11 10 -4 17 -3 21 5 13 5 -5 8 -16 6 -23z
m-516 -1 c-2 -10 -6 -18 -7 -18 -1 0 -5 8 -7 18 -3 11 0 19 7 19 7 0 10 -8 7
-19z m258 14 c0 -13 -12 -22 -22 -16 -10 6 -1 24 13 24 5 0 9 -4 9 -8z m917
-9 c0 -9 -4 -10 -12 -3 -7 5 -15 7 -18 3 -4 -3 -7 -1 -7 5 0 6 8 10 18 9 10 0
19 -7 19 -14z m618 8 c3 -5 2 -12 -3 -15 -5 -3 -9 1 -9 9 0 17 3 19 12 6z
m141 -3 c4 -7 3 -8 -4 -4 -7 4 -12 1 -12 -6 0 -8 -7 -23 -15 -34 -13 -16 -16
-17 -25 -4 -8 13 -10 13 -10 -2 0 -10 -4 -18 -10 -18 -14 0 10 48 27 54 8 3
11 1 8 -4 -3 -6 -1 -10 4 -10 6 0 11 9 11 20 0 22 15 27 26 8z m1082 -13 c-3
-3 -9 2 -12 12 -6 14 -5 15 5 6 7 -7 10 -15 7 -18z m46 9 c3 -8 2 -12 -4 -9
-6 3 -10 10 -10 16 0 14 7 11 14 -7z m301 6 c3 -5 1 -10 -4 -10 -6 0 -11 5
-11 10 0 6 2 10 4 10 3 0 8 -4 11 -10z m745 6 c0 -2 -8 -10 -17 -17 -16 -13
-17 -12 -4 4 13 16 21 21 21 13z m247 -18 c-3 -8 -6 -5 -6 6 -1 11 2 17 5 13
3 -3 4 -12 1 -19z m1026 -11 c-3 -5 4 -6 16 -2 23 7 24 5 15 -19 -8 -20 -34
-21 -34 -1 0 8 -6 15 -12 16 -10 0 -10 2 -1 5 7 3 9 13 6 22 -4 14 -3 14 5 2
6 -8 8 -18 5 -23z m58 10 c-10 -9 -11 -8 -5 6 3 10 9 15 12 12 3 -3 0 -11 -7
-18z m724 -4 c1 -10 8 -17 15 -15 6 1 8 -2 5 -8 -10 -16 -45 18 -38 36 7 18
13 13 18 -13z m109 19 c3 -5 -1 -9 -9 -9 -8 0 -12 4 -9 9 3 4 7 8 9 8 2 0 6
-4 9 -8z m27 -19 c-12 -20 -14 -14 -5 12 4 9 9 14 11 11 3 -2 0 -13 -6 -23z
m804 18 c3 -5 1 -12 -5 -16 -5 -3 -10 1 -10 9 0 18 6 21 15 7z m885 -10 c7
-14 7 -22 -2 -27 -6 -4 -8 -3 -5 3 4 6 0 14 -9 17 -8 3 -12 10 -9 16 9 14 13
13 25 -9z m-6880 5 c0 -2 -8 -10 -17 -17 -16 -13 -17 -12 -4 4 13 16 21 21 21
13z m313 -7 c-6 -6 -9 -19 -6 -28 4 -13 3 -14 -5 -1 -10 14 1 40 16 40 3 0 1
-5 -5 -11z m168 -12 c-10 -9 -11 -8 -5 6 3 10 9 15 12 12 3 -3 0 -11 -7 -18z
m684 13 c3 -6 -1 -7 -9 -4 -18 7 -21 14 -7 14 6 0 13 -4 16 -10z m82 2 c20 16
22 6 3 -13 -16 -15 -18 -14 -30 5 -10 17 -10 19 1 9 9 -9 16 -10 26 -1z m748
-10 c-3 -3 -11 0 -18 7 -9 10 -8 11 6 5 10 -3 15 -9 12 -12z m129 9 c3 -5 -1
-11 -9 -14 -9 -4 -12 -1 -8 9 6 16 10 17 17 5z m422 -3 c3 -4 -1 -5 -10 -4 -8
1 -18 5 -22 8 -3 4 1 5 10 4 8 -1 18 -5 22 -8z m1977 -2 c4 -10 1 -13 -8 -9
-8 3 -12 9 -9 14 7 12 11 11 17 -5z m1562 4 c3 -5 1 -10 -4 -10 -6 0 -11 5
-11 10 0 6 2 10 4 10 3 0 8 -4 11 -10z m310 -8 c-3 -3 -11 0 -18 7 -9 10 -8
11 6 5 10 -3 15 -9 12 -12z m119 2 c3 -8 2 -12 -4 -9 -6 3 -10 10 -10 16 0 14
7 11 14 -7z m983 -21 c-3 -10 -5 -4 -5 12 0 17 2 24 5 18 2 -7 2 -21 0 -30z
m320 15 c-3 -8 -6 -5 -6 6 -1 11 2 17 5 13 3 -3 4 -12 1 -19z m203 18 c0 -2
-7 -9 -15 -16 -13 -11 -14 -10 -9 4 5 14 24 23 24 12z m235 -5 c3 -5 1 -12 -5
-16 -5 -3 -10 1 -10 9 0 18 6 21 15 7z m1225 -1 c0 -5 -5 -10 -11 -10 -5 0 -7
5 -4 10 3 6 8 10 11 10 2 0 4 -4 4 -10z m178 -7 c-9 -10 -13 -25 -10 -33 4
-12 2 -13 -9 -3 -10 10 -9 16 6 33 22 24 34 27 13 3z m489 -5 c-3 -8 -6 -5 -6
6 -1 11 2 17 5 13 3 -3 4 -12 1 -19z m46 -31 c-3 -5 -11 4 -19 18 -19 37 -18
42 5 14 11 -13 17 -28 14 -32z m23 44 c-4 -5 -2 -21 4 -35 5 -14 7 -26 5 -26
-9 0 -25 51 -19 61 3 5 7 9 10 9 3 0 3 -4 0 -9z m255 -14 c-10 -9 -11 -8 -5 6
3 10 9 15 12 12 3 -3 0 -11 -7 -18z m-11206 -16 c-9 -16 -25 -3 -18 15 4 10 9
12 15 6 6 -6 7 -15 3 -21z m916 19 c-12 -7 -12 -11 -2 -23 10 -12 10 -15 -1
-13 -41 6 -45 40 -5 43 16 2 18 0 8 -7z m2267 -8 c2 -7 -1 -12 -8 -12 -6 0 -9
4 -6 9 4 5 1 12 -4 14 -6 3 -5 4 2 3 6 -1 14 -8 16 -14z m1772 8 c0 -5 -5 -10
-11 -10 -5 0 -7 5 -4 10 3 6 8 10 11 10 2 0 4 -4 4 -10z m600 -31 c0 -11 -4
-19 -9 -19 -5 0 -8 8 -6 18 1 9 -3 24 -9 32 -10 13 -9 13 7 1 9 -7 17 -22 17
-32z m1791 16 c10 -20 10 -20 -5 -1 -15 19 -22 12 -17 -17 1 -5 -3 -6 -9 -2
-5 3 -10 13 -10 21 0 9 -5 12 -12 8 -6 -4 -8 -3 -4 4 10 17 47 9 57 -13z m469
21 c0 -2 -7 -7 -16 -10 -8 -3 -12 -2 -9 4 6 10 25 14 25 6z m451 -26 c6 0 7
-5 4 -10 -10 -16 -25 -1 -24 23 1 17 2 18 6 5 2 -10 9 -18 14 -18z m455 0 c8
0 14 -4 14 -10 0 -5 -4 -10 -8 -10 -14 0 -32 23 -31 40 1 11 2 11 6 -2 2 -10
11 -18 19 -18z m974 26 c0 -2 -7 -7 -16 -10 -8 -3 -12 -2 -9 4 6 10 25 14 25
6z m1855 -5 c3 -5 2 -12 -3 -15 -5 -3 -9 1 -9 9 0 17 3 19 12 6z m140 -1 c3
-5 1 -10 -4 -10 -6 0 -11 5 -11 10 0 6 2 10 4 10 3 0 8 -4 11 -10z m-9163 -22
c-7 -7 -12 -8 -12 -2 0 14 12 26 19 19 2 -3 -1 -11 -7 -17z m443 13 c3 -5 1
-12 -5 -16 -5 -3 -10 1 -10 9 0 18 6 21 15 7z m265 -1 c0 -5 -5 -10 -11 -10
-5 0 -7 5 -4 10 3 6 8 10 11 10 2 0 4 -4 4 -10z m1245 -10 c-3 -5 -13 -6 -21
-3 -12 4 -13 8 -3 14 15 9 32 2 24 -11z m445 11 c0 -6 -4 -13 -10 -16 -5 -3
-10 1 -10 9 0 9 5 16 10 16 6 0 10 -4 10 -9z m680 -3 c0 7 5 10 10 7 17 -10
-8 -35 -27 -28 -11 4 -14 2 -9 -5 4 -7 2 -12 -3 -12 -15 0 -14 18 2 34 9 10
14 11 19 2 6 -8 8 -7 8 2z m1880 6 c0 -8 -19 -13 -24 -6 -3 5 1 9 9 9 8 0 15
-2 15 -3z m581 -11 c13 -17 13 -17 -6 -3 -11 8 -22 16 -24 17 -2 2 0 3 6 3 6
0 17 -8 24 -17z m1999 7 c0 -5 0 -13 -1 -16 0 -3 8 -13 18 -21 17 -14 17 -14
0 -9 -10 3 -25 6 -33 6 -8 0 -14 5 -14 10 0 6 3 9 8 9 19 -3 23 2 12 16 -9 10
-9 15 -1 15 6 0 11 -4 11 -10z m225 -1 c11 -17 -1 -21 -15 -4 -8 9 -8 15 -2
15 6 0 14 -5 17 -11z m-6705 -11 c0 -11 -12 -10 -30 2 -12 7 -10 9 8 7 12 0
22 -5 22 -9z m464 -3 c3 -8 1 -15 -4 -15 -6 0 -10 7 -10 15 0 8 2 15 4 15 2 0
6 -7 10 -15z m1476 -6 c0 -17 -3 -19 -13 -10 -8 6 -16 10 -18 8 -2 -1 2 4 10
11 20 16 21 16 21 -9z m4094 6 c3 -8 1 -15 -4 -15 -6 0 -10 7 -10 15 0 8 2 15
4 15 2 0 6 -7 10 -15z m492 -12 c-10 -10 -19 5 -10 18 6 11 8 11 12 0 2 -7 1
-15 -2 -18z m647 12 c-3 -9 -8 -14 -10 -11 -3 3 -2 9 2 15 9 16 15 13 8 -4z
m-3473 -5 c0 -5 -2 -10 -4 -10 -3 0 -8 5 -11 10 -3 6 -1 10 4 10 6 0 11 -4 11
-10z m4240 -1 c13 -9 13 -10 -2 -6 -9 3 -19 1 -22 -6 -2 -7 -5 -4 -5 6 -1 20
7 21 29 6z m40 1 c0 -5 -5 -10 -11 -10 -5 0 -7 5 -4 10 3 6 8 10 11 10 2 0 4
-4 4 -10z m-930 -4 c0 -11 -19 -15 -25 -6 -3 5 1 10 9 10 9 0 16 -2 16 -4z"/>
<path d="M134 17202 c-11 -11 -26 -21 -34 -24 -8 -3 6 -5 33 -5 44 -1 56 5 40
20 -3 4 -13 1 -22 -6 -14 -11 -14 -10 -2 6 20 25 7 32 -15 9z"/>
<path d="M1020 17204 c0 -12 -6 -15 -20 -11 -16 4 -20 1 -18 -11 1 -9 -1 -23
-5 -29 -6 -9 -3 -11 7 -7 9 3 16 12 16 20 0 8 6 14 14 14 17 0 29 27 16 35 -6
4 -10 -1 -10 -11z"/>
<path d="M1700 17211 c0 -10 19 -25 25 -20 1 2 -3 10 -11 17 -8 7 -14 8 -14 3z"/>
<path d="M2513 17202 c-3 -14 -11 -19 -26 -17 -22 4 -22 4 -2 -11 12 -9 21
-11 23 -4 2 5 10 10 18 10 16 0 19 26 3 35 -6 4 -13 -2 -16 -13z"/>
<path d="M80 17206 c0 -9 30 -14 35 -6 4 6 -3 10 -14 10 -12 0 -21 -2 -21 -4z"/>
<path d="M1050 17200 c-8 -5 -11 -12 -7 -16 4 -4 13 -2 19 4 15 15 7 24 -12
12z"/>
<path d="M3521 17203 c-1 -17 16 -25 25 -12 4 7 3 9 -4 5 -5 -3 -13 0 -15 6
-4 9 -6 10 -6 1z"/>
<path d="M4060 17200 c0 -5 5 -10 10 -10 6 0 10 5 10 10 0 6 -4 10 -10 10 -5
0 -10 -4 -10 -10z"/>
<path d="M0 17189 c0 -5 5 -7 10 -4 5 3 10 8 10 11 0 2 -4 4 -10 4 -5 0 -10
-5 -10 -11z"/>
<path d="M485 17190 c-3 -6 1 -7 9 -4 9 3 16 1 16 -5 0 -6 -4 -11 -10 -11 -5
0 -10 -5 -10 -12 0 -8 6 -7 16 4 9 9 13 21 10 27 -9 14 -23 14 -31 1z"/>
<path d="M1196 17184 c-9 -23 -8 -24 12 -23 9 0 12 3 5 5 -7 3 -9 12 -6 20 3
8 3 14 0 14 -3 0 -8 -7 -11 -16z"/>
<path d="M2070 17196 c0 -2 7 -9 15 -16 9 -7 15 -8 15 -2 0 5 -7 12 -15 16 -8
3 -15 4 -15 2z"/>
<path d="M2113 17184 c-7 -19 21 -44 46 -44 10 0 5 7 -12 18 -15 9 -25 22 -22
29 2 7 2 13 -1 13 -2 0 -7 -7 -11 -16z"/>
<path d="M2815 17191 c-3 -5 0 -13 6 -17 7 -4 9 -3 5 4 -3 5 0 13 6 15 9 4 10
6 1 6 -6 1 -14 -3 -18 -8z"/>
<path d="M4614 17191 c-5 -5 -18 -11 -28 -13 -19 -3 -19 -3 -1 -18 11 -9 16
-10 11 -2 -7 12 4 16 32 13 6 -1 12 3 12 8 0 15 -15 21 -26 12z"/>
<path d="M4771 17183 c-18 -19 -10 -25 12 -8 10 7 15 15 10 18 -4 3 -14 -2
-22 -10z"/>
<path d="M6300 17190 c0 -6 7 -10 15 -10 8 0 15 2 15 4 0 2 -7 6 -15 10 -8 3
-15 1 -15 -4z"/>
<path d="M9733 17186 c0 -8 6 -12 15 -8 11 4 13 2 7 -9 -8 -12 -6 -12 8 0 15
12 21 9 19 -10 -1 -3 5 -6 13 -6 16 0 30 26 15 28 -13 2 -29 6 -32 8 -13 11
-45 8 -45 -3z"/>
<path d="M10168 17191 c1 -2 -6 -13 -15 -24 -17 -19 -17 -19 7 -12 29 9 66 29
40 22 -8 -2 -19 1 -25 7 -5 6 -9 9 -7 7z"/>
<path d="M1844 17181 c4 -6 2 -19 -5 -27 -10 -12 -9 -13 5 -8 19 7 21 30 4 40
-7 4 -8 3 -4 -5z"/>
<path d="M2245 17180 c-3 -5 -1 -10 4 -10 6 0 11 5 11 10 0 6 -2 10 -4 10 -3
0 -8 -4 -11 -10z"/>
<path d="M2666 17175 c-3 -8 -1 -15 4 -15 6 0 10 7 10 15 0 8 -2 15 -4 15 -2
0 -6 -7 -10 -15z"/>
<path d="M5497 17179 c6 -6 9 -19 6 -28 -3 -11 -2 -12 4 -4 5 7 19 11 31 8 13
-2 20 0 17 6 -4 5 -11 7 -16 4 -5 -4 -9 -1 -9 5 0 6 -4 8 -10 5 -5 -3 -10 -1
-10 4 0 6 -5 11 -12 11 -9 0 -9 -3 -1 -11z"/>
<path d="M6560 17174 c0 -8 5 -12 10 -9 6 4 8 11 5 16 -9 14 -15 11 -15 -7z"/>
<path d="M7068 17176 c-20 -15 -23 -26 -8 -26 5 0 14 9 20 20 12 23 11 24 -12
6z"/>
<path d="M7140 17175 c-10 -12 -10 -15 4 -15 9 0 16 7 16 15 0 8 -2 15 -4 15
-2 0 -9 -7 -16 -15z"/>
<path d="M7970 17180 c0 -5 7 -7 15 -4 8 4 15 8 15 10 0 2 -7 4 -15 4 -8 0
-15 -4 -15 -10z"/>
<path d="M9045 17177 c-14 -11 -15 -16 -5 -22 9 -5 11 -4 6 3 -7 11 6 17 27
13 5 -1 6 3 2 9 -8 13 -8 13 -30 -3z"/>
<path d="M10343 17174 c-3 -9 0 -20 8 -25 19 -12 29 -11 29 1 0 6 -4 10 -10
10 -5 0 -7 7 -4 15 4 8 1 15 -5 15 -7 0 -14 -7 -18 -16z"/>
<path d="M12253 17183 c-15 -5 -17 -23 -4 -23 5 0 11 7 15 15 3 8 4 15 3 14
-1 0 -8 -3 -14 -6z"/>
<path d="M1117 17173 c-3 -5 6 -9 20 -10 19 -1 22 1 12 8 -17 11 -26 11 -32 2z"/>
<path d="M1710 17170 c0 -5 5 -10 10 -10 6 0 10 5 10 10 0 6 -4 10 -10 10 -5
0 -10 -4 -10 -10z"/>
<path d="M2213 17173 c-16 -6 2 -43 20 -43 8 0 7 3 -2 9 -11 7 -10 10 5 14 17
4 17 5 1 6 -10 0 -15 6 -12 11 7 11 6 11 -12 3z"/>
<path d="M4736 17165 c-3 -8 -1 -15 4 -15 6 0 10 7 10 15 0 8 -2 15 -4 15 -2
0 -6 -7 -10 -15z"/>
<path d="M5356 17172 c-3 -5 1 -15 8 -21 11 -10 14 -9 12 3 -3 21 -13 29 -20
18z"/>
<path d="M6175 17170 c-3 -5 -1 -10 4 -10 6 0 11 5 11 10 0 6 -2 10 -4 10 -3
0 -8 -4 -11 -10z"/>
<path d="M7380 17171 c0 -7 -5 -9 -12 -5 -7 5 -8 3 -3 -5 5 -9 10 -10 18 -2 6
6 8 14 4 18 -4 3 -7 1 -7 -6z"/>
<path d="M7810 17170 c-9 -6 -10 -10 -3 -10 6 0 15 5 18 10 8 12 4 12 -15 0z"/>
<path d="M8005 17170 c-3 -5 -1 -10 4 -10 6 0 11 5 11 10 0 6 -2 10 -4 10 -3
0 -8 -4 -11 -10z"/>
<path d="M8297 17162 c-15 -17 -15 -18 6 -19 17 -2 19 0 7 7 -13 8 -12 10 3
10 9 0 17 5 17 10 0 15 -15 12 -33 -8z"/>
<path d="M9246 17171 c-3 -5 1 -11 9 -15 8 -3 15 -1 15 4 0 13 -18 22 -24 11z"/>
<path d="M9893 17173 c-7 -3 -13 -9 -13 -15 0 -7 4 -7 13 1 15 12 37 -3 33
-23 -2 -6 -1 -8 1 -3 3 4 10 4 16 0 7 -3 3 3 -7 15 -19 22 -19 22 3 22 12 0
19 -4 16 -10 -3 -6 1 -7 9 -4 28 11 17 21 -21 21 -21 0 -44 -2 -50 -4z"/>
<path d="M10410 17176 c0 -2 7 -7 16 -10 8 -3 12 -2 9 4 -6 10 -25 14 -25 6z"/>
<path d="M11614 17163 c2 -10 -1 -21 -6 -24 -5 -3 -2 -12 7 -19 13 -11 15 -10
9 4 -4 11 -1 16 12 17 18 0 17 1 -1 9 -11 5 -14 9 -7 9 7 1 10 6 7 11 -10 16
-23 11 -21 -7z"/>
<path d="M12 17154 c10 -10 20 -16 22 -13 3 3 -5 11 -17 18 -21 13 -21 12 -5
-5z"/>
<path d="M190 17161 c0 -6 4 -13 10 -16 6 -3 7 1 4 9 -7 18 -14 21 -14 7z"/>
<path d="M309 17153 c-12 -16 -12 -17 2 -6 9 7 20 9 24 5 5 -4 5 -1 1 6 -9 16
-11 15 -27 -5z"/>
<path d="M1025 17159 c-4 -6 -4 -13 -1 -16 3 -4 6 -1 6 6 0 7 4 10 9 6 5 -3
12 -1 16 5 3 5 -1 10 -9 10 -8 0 -18 -5 -21 -11z"/>
<path d="M1780 17166 c0 -2 7 -7 16 -10 8 -3 12 -2 9 4 -6 10 -25 14 -25 6z"/>
<path d="M2381 17153 c-7 -8 -11 -16 -8 -19 2 -2 10 2 17 11 17 20 9 27 -9 8z"/>
<path d="M4060 17165 c0 -2 6 -8 13 -14 10 -8 14 -7 14 2 0 8 -6 14 -14 14 -7
0 -13 -1 -13 -2z"/>
<path d="M4832 17161 c-10 -6 -8 -10 9 -14 13 -4 25 -4 28 -2 2 3 -2 5 -10 5
-11 0 -11 2 1 10 13 9 13 10 0 10 -8 0 -21 -4 -28 -9z"/>
<path d="M5584 17159 c-4 -7 0 -9 14 -5 14 5 24 1 31 -11 6 -10 11 -13 11 -7
0 26 -42 45 -56 23z"/>
<path d="M6320 17161 c0 -6 4 -13 10 -16 6 -3 7 1 4 9 -7 18 -14 21 -14 7z"/>
<path d="M7526 17153 c-6 -14 -5 -15 5 -6 7 7 10 15 7 18 -3 3 -9 -2 -12 -12z"/>
<path d="M7644 17158 c-5 -7 -2 -9 8 -5 9 3 22 0 29 -6 11 -10 11 -9 0 6 -16
20 -27 22 -37 5z"/>
<path d="M7910 17157 c0 -8 7 -14 15 -14 11 0 12 4 4 14 -6 7 -13 13 -15 13
-2 0 -4 -6 -4 -13z"/>
<path d="M8576 17157 c3 -10 9 -15 12 -12 3 3 0 11 -7 18 -10 9 -11 8 -5 -6z"/>
<path d="M9445 17161 c-3 -6 -11 -9 -16 -6 -5 3 -6 -1 -3 -9 5 -14 8 -14 21 0
9 8 13 17 10 20 -3 3 -8 0 -12 -5z"/>
<path d="M11445 17160 c3 -5 8 -10 11 -10 2 0 4 5 4 10 0 6 -5 10 -11 10 -5 0
-7 -4 -4 -10z"/>
<path d="M11999 17153 c-12 -16 -12 -17 2 -5 9 7 25 10 35 6 16 -5 16 -4 4 5
-20 15 -25 14 -41 -6z"/>
<path d="M58 17153 c7 -3 16 -2 19 1 4 3 -2 6 -13 5 -11 0 -14 -3 -6 -6z"/>
<path d="M156 17148 c3 -4 9 -8 15 -8 5 0 9 4 9 8 0 5 -7 9 -15 9 -8 0 -12 -4
-9 -9z"/>
<path d="M255 17150 c3 -5 8 -10 11 -10 2 0 4 5 4 10 0 6 -5 10 -11 10 -5 0
-7 -4 -4 -10z"/>
<path d="M378 17153 c6 -2 18 -2 25 0 6 3 1 5 -13 5 -14 0 -19 -2 -12 -5z"/>
<path d="M556 17148 c3 -5 10 -6 15 -3 13 9 11 12 -6 12 -8 0 -12 -4 -9 -9z"/>
<path d="M868 17153 c7 -3 16 -2 19 1 4 3 -2 6 -13 5 -11 0 -14 -3 -6 -6z"/>
<path d="M1735 17150 c-3 -6 1 -7 9 -4 18 7 21 14 7 14 -6 0 -13 -4 -16 -10z"/>
<path d="M2015 17150 c3 -5 8 -10 11 -10 2 0 4 5 4 10 0 6 -5 10 -11 10 -5 0
-7 -4 -4 -10z"/>
<path d="M2790 17148 c0 -4 4 -8 9 -8 6 0 12 4 15 8 3 5 -1 9 -9 9 -8 0 -15
-4 -15 -9z"/>
<path d="M4236 17145 c-3 -8 -1 -15 4 -15 13 0 22 18 11 24 -5 3 -11 -1 -15
-9z"/>
<path d="M4560 17150 c0 -5 5 -10 11 -10 5 0 7 5 4 10 -3 6 -8 10 -11 10 -2 0
-4 -4 -4 -10z"/>
<path d="M5041 17144 c0 -11 3 -14 6 -6 3 7 2 16 -1 19 -3 4 -6 -2 -5 -13z"/>
<path d="M7008 17148 c5 -5 16 -8 23 -6 8 3 3 7 -10 11 -17 4 -21 3 -13 -5z"/>
<path d="M7250 17150 c-12 -8 -13 -11 -2 -22 11 -11 13 -10 10 2 -2 8 3 14 10
12 8 -1 11 2 7 8 -7 12 -6 12 -25 0z"/>
<path d="M7310 17151 c0 -7 -5 -9 -12 -5 -7 5 -8 3 -3 -5 5 -9 10 -10 18 -2 6
6 8 14 4 18 -4 3 -7 1 -7 -6z"/>
<path d="M7983 17144 c0 -16 13 -19 21 -5 3 5 0 11 -7 14 -8 3 -14 -1 -14 -9z"/>
<path d="M9075 17150 c11 -5 27 -9 35 -9 9 0 8 4 -5 9 -11 5 -27 9 -35 9 -9 0
-8 -4 5 -9z"/>
<path d="M10192 17151 c-11 -7 -11 -9 0 -14 9 -3 15 1 15 9 0 8 -1 14 -1 14
-1 0 -7 -4 -14 -9z"/>
<path d="M10700 17153 c0 -5 4 -14 9 -21 7 -11 9 -11 14 1 3 8 3 18 0 21 -9 8
-23 7 -23 -1z"/>
<path d="M11717 17149 c-9 -6 -15 -14 -12 -20 4 -5 13 -2 22 6 19 20 14 27
-10 14z"/>
<path d="M12073 17153 c9 -2 15 -8 12 -13 -3 -5 0 -12 6 -16 8 -4 9 -3 5 4 -4
7 -1 12 6 12 9 0 9 3 -2 10 -8 5 -22 9 -30 9 -11 -1 -10 -3 3 -6z"/>
<path d="M12155 17140 c-16 -17 -16 -20 -3 -15 9 4 19 13 22 21 7 19 2 18 -19
-6z"/>
<path d="M3915 17140 c3 -5 8 -10 11 -10 2 0 4 5 4 10 0 6 -5 10 -11 10 -5 0
-7 -4 -4 -10z"/>
<path d="M6545 17140 c3 -5 8 -10 11 -10 2 0 4 5 4 10 0 6 -5 10 -11 10 -5 0
-7 -4 -4 -10z"/>
<path d="M6810 17140 c8 -5 20 -10 25 -10 6 0 3 5 -5 10 -8 5 -19 10 -25 10
-5 0 -3 -5 5 -10z"/>
<path d="M8183 17135 c0 -7 6 -11 14 -8 7 3 13 6 13 8 0 2 -6 5 -13 8 -8 3
-14 -1 -14 -8z"/>
<path d="M8886 17138 c3 -5 10 -6 15 -3 13 9 11 12 -6 12 -8 0 -12 -4 -9 -9z"/>
<path d="M10026 17142 c-9 -15 26 -25 38 -11 8 9 7 10 -3 4 -7 -4 -16 -2 -21
5 -5 8 -10 8 -14 2z"/>
<path d="M8425 17130 c3 -5 8 -10 11 -10 2 0 4 5 4 10 0 6 -5 10 -11 10 -5 0
-7 -4 -4 -10z"/>
<path d="M8840 17130 c-9 -6 -10 -10 -3 -10 6 0 15 5 18 10 8 12 4 12 -15 0z"/>
<path d="M9787 17129 c7 -7 15 -10 18 -7 3 3 -2 9 -12 12 -14 6 -15 5 -6 -5z"/>
<path d="M12300 17136 c0 -2 8 -10 18 -17 15 -13 16 -12 3 4 -13 16 -21 21
-21 13z"/>
<path d="M5335 15281 c-185 -63 -348 -165 -491 -305 -96 -95 -149 -168 -186
-258 -32 -78 -32 -226 1 -323 13 -38 32 -87 42 -107 11 -21 19 -42 19 -47 0
-5 -28 -25 -62 -43 -117 -62 -278 -236 -361 -388 -142 -260 -183 -1078 -76
-1504 22 -86 36 -118 80 -183 59 -85 28 -115 -84 -83 -105 29 -157 27 -189 -7
-54 -57 -63 -176 -23 -294 15 -41 39 -123 56 -184 32 -117 148 -367 251 -539
100 -167 195 -239 266 -202 31 16 32 16 37 -6 80 -347 161 -613 236 -775 36
-80 38 -89 48 -245 6 -90 11 -192 11 -228 l0 -65 -40 -23 c-75 -43 -164 -184
-235 -372 -16 -41 -92 -203 -170 -360 l-142 -286 -129 -53 c-491 -206 -1293
-566 -1682 -756 -468 -229 -624 -322 -760 -450 -373 -352 -631 -906 -781
-1677 -193 -992 -499 -3390 -541 -4238 -9 -184 -14 -347 -35 -1067 l-7 -213
4591 0 4591 0 0 41 c0 51 28 241 39 272 9 21 9 21 21 -8 36 -92 130 -158 273
-189 28 -7 28 -7 22 -61 l-7 -55 1181 0 1181 0 11 28 c41 107 59 404 40 677
-30 434 -112 988 -236 1605 -25 124 -68 377 -95 562 -168 1145 -340 2181 -456
2753 -129 633 -263 1012 -465 1316 -111 166 -372 432 -524 531 -295 194 -981
526 -1895 918 -118 51 -221 97 -228 102 -21 18 -241 386 -330 553 -162 306
-229 412 -315 502 l-50 52 12 102 c11 92 17 110 62 190 127 229 257 617 294
882 7 47 7 47 46 47 84 0 212 97 239 181 8 23 43 93 78 153 131 228 177 333
217 498 56 230 54 381 -5 440 -38 38 -97 37 -229 -3 -147 -45 -149 -38 -39
112 39 53 95 330 124 619 20 205 20 565 0 737 -55 463 -185 735 -505 1053
-143 142 -254 224 -409 303 -117 60 -215 95 -337 122 -44 10 -130 38 -192 61
-298 117 -648 184 -958 184 -279 0 -610 -61 -890 -163 -38 -15 -71 -24 -73
-22 -2 2 7 18 20 35 29 40 102 94 192 142 84 44 63 48 -49 9z m1607 -1000
c226 -74 609 -309 825 -508 51 -46 55 -53 88 -165 64 -214 168 -471 249 -613
l40 -70 8 -200 c5 -110 6 -450 2 -755 -6 -491 -5 -553 9 -542 18 16 24 51 37
238 12 166 27 240 65 314 l25 50 44 -6 c35 -5 65 0 135 25 176 60 216 36 214
-129 -3 -214 -83 -461 -233 -713 -27 -47 -68 -124 -91 -171 -41 -86 -74 -123
-146 -160 -44 -22 -78 -20 -96 7 -10 14 -18 19 -25 12 -5 -5 -21 -75 -35 -155
-126 -699 -455 -1232 -868 -1404 -37 -15 -37 -15 -119 34 l-82 49 6 -34 c5
-27 3 -35 -11 -39 -35 -10 -149 -26 -192 -26 l-45 0 34 -35 34 -35 -50 0 c-54
0 -160 24 -181 42 -10 8 -13 3 -13 -23 l-1 -34 -60 65 -60 65 6 -37 c3 -21 4
-38 1 -38 -2 0 -15 17 -28 38 l-23 37 -5 -29 c-5 -28 -7 -25 -44 42 -22 40
-43 72 -47 72 -4 0 -13 -16 -19 -35 -14 -43 -25 -44 -46 -2 -10 17 -19 28 -20
22 -2 -5 -10 -43 -19 -84 -19 -97 -30 -106 -49 -45 -11 37 -15 43 -15 22 -1
-15 -12 -39 -25 -55 l-24 -27 -7 61 -7 62 -34 -34 c-35 -35 -69 -56 -112 -70
-23 -7 -23 -6 -8 24 9 16 16 31 16 33 0 2 -23 1 -52 -1 -28 -2 -108 0 -176 4
l-124 7 21 22 c32 34 26 36 -35 13 l-56 -21 -52 29 c-192 107 -375 299 -499
523 -120 216 -199 441 -286 819 -22 91 -44 170 -50 176 -8 8 -19 3 -39 -16
-67 -65 -139 -12 -258 188 -84 143 -201 391 -223 477 -12 46 -38 130 -57 188
-36 112 -40 151 -23 215 22 80 47 88 164 55 83 -24 123 -25 152 -5 20 14 22
12 52 -55 39 -88 85 -243 102 -345 18 -104 26 -70 28 110 1 72 6 193 11 270 6
77 14 267 19 423 l10 282 48 72 c26 40 89 115 140 167 l94 95 -18 66 c-31 121
-12 389 43 577 37 127 90 228 158 301 50 53 78 73 170 118 149 72 327 130 449
145 130 16 525 6 666 -16 102 -16 103 -16 118 4 20 29 90 76 143 95 74 27 240
16 362 -23z m753 -4712 c-18 -181 -19 -459 -1 -559 13 -68 12 -83 -5 -160 -36
-169 -111 -394 -166 -504 -14 -27 -74 -135 -135 -240 -112 -196 -258 -478
-297 -576 -18 -45 -34 -65 -92 -110 -102 -80 -255 -180 -406 -266 -72 -41
-155 -96 -183 -121 l-52 -46 -26 34 c-15 19 -44 52 -64 75 -21 23 -45 61 -53
85 -31 88 -113 186 -224 268 -36 27 -136 88 -221 136 -85 48 -161 91 -167 97
-38 31 -367 518 -497 735 l-98 162 19 188 c13 141 18 269 17 512 -1 319 0 324
18 300 74 -94 140 -168 198 -223 50 -47 65 -67 57 -75 -8 -8 -5 -11 13 -11 30
0 93 -48 86 -66 -4 -10 2 -14 20 -14 13 0 43 -11 65 -25 33 -21 39 -30 34 -48
-11 -38 -43 -57 -99 -58 l-51 0 39 -15 c22 -8 68 -19 102 -24 70 -11 109 -2
135 32 21 27 41 15 33 -20 -10 -44 -32 -71 -81 -101 l-47 -29 38 -8 c51 -9
161 2 197 20 l29 14 10 -41 c19 -71 41 -137 49 -141 4 -3 25 13 46 34 l39 40
30 -62 c24 -49 41 -69 76 -89 76 -46 79 -45 113 48 16 46 33 80 37 78 4 -3 11
-29 15 -60 3 -30 10 -57 14 -60 5 -2 14 14 20 37 30 100 29 99 63 38 17 -30
37 -66 45 -79 l15 -23 35 33 c19 19 46 53 60 76 l25 42 28 -21 c16 -11 34 -34
41 -50 l12 -29 48 47 c26 26 69 73 95 104 47 58 48 58 73 42 29 -19 153 -24
170 -7 7 7 3 26 -14 59 -24 47 -34 116 -17 116 4 0 25 -12 47 -25 51 -32 85
-32 115 0 l23 25 -40 0 c-34 0 -46 6 -72 35 -17 20 -31 37 -31 40 0 2 27 18
60 37 33 18 60 35 60 38 0 4 -15 13 -32 22 l-33 15 60 12 c81 17 98 22 91 29
-4 3 30 25 74 47 141 74 298 211 393 342 17 24 32 42 34 40 1 -2 -4 -68 -12
-148z"/>
<path d="M7299 12847 c12 -15 10 -17 -14 -17 -99 0 -554 -136 -580 -173 -17
-25 -20 -122 -4 -132 5 -4 19 1 30 11 18 16 19 16 19 -6 l0 -23 25 23 25 23 0
-23 0 -23 23 21 c29 27 40 28 32 2 -4 -14 -2 -18 7 -15 78 27 263 77 329 89
216 38 294 31 443 -44 55 -28 101 -49 102 -47 9 9 -99 152 -161 213 -81 81
-161 125 -238 132 -47 5 -51 4 -38 -11z"/>
<path d="M5328 12831 c-73 -29 -167 -101 -262 -202 -47 -50 -86 -95 -86 -100
0 -4 24 3 53 15 126 56 202 71 367 71 170 0 243 -15 376 -75 53 -24 65 -26 60
-13 -6 16 -6 16 12 0 13 -12 21 -14 29 -6 8 8 15 5 23 -12 12 -21 14 -21 25
-5 8 11 15 13 20 7 11 -18 22 -12 35 18 10 24 8 36 -10 79 -12 27 -31 59 -43
70 -33 31 -285 98 -495 132 -61 10 -71 14 -61 26 14 17 15 17 -43 -5z"/>
<path d="M7114 12412 c-67 -24 -158 -79 -192 -117 -25 -27 -25 -28 -2 -9 86
74 214 124 318 124 85 0 149 -19 226 -65 41 -24 54 -29 41 -15 -10 11 -52 37
-93 57 -65 32 -85 37 -160 40 -66 3 -100 -1 -138 -15z"/>
<path d="M5395 12403 c-60 -25 -135 -77 -180 -124 l-40 -43 54 46 c148 126
308 149 489 68 77 -34 56 -13 -33 33 -53 27 -72 31 -155 34 -72 2 -105 -1
-135 -14z"/>
<path d="M7123 12315 c-79 -22 -162 -67 -244 -133 -86 -69 -124 -108 -112
-115 5 -3 53 8 108 24 l100 29 -63 -3 c-34 -1 -62 1 -62 4 0 15 158 119 180
119 6 0 10 -14 10 -30 0 -17 7 -46 15 -66 19 -46 63 -64 160 -64 71 0 79 2
105 28 29 29 49 105 36 137 -9 24 9 17 61 -23 75 -60 81 -71 55 -90 -21 -16
-20 -17 35 -13 l58 3 -78 75 c-48 46 -100 85 -134 100 -68 31 -158 38 -230 18z
m117 -69 c16 -20 9 -60 -12 -64 -12 -2 -19 5 -24 22 -11 46 10 72 36 42z"/>
<path d="M5425 12292 c-76 -26 -134 -64 -199 -131 -57 -57 -58 -60 -35 -65 78
-18 122 -26 125 -23 2 2 -14 14 -36 26 -22 12 -40 26 -40 31 0 11 80 80 118
103 l31 17 -2 -52 c-4 -103 37 -148 136 -149 60 -1 113 18 142 51 16 17 20 36
20 85 0 39 4 61 10 57 45 -26 125 -86 149 -111 l30 -31 -26 0 c-14 0 -41 -3
-59 -7 -29 -6 -20 -9 56 -19 50 -7 92 -10 95 -7 8 9 -138 137 -197 173 -114
69 -219 86 -318 52z m165 -66 c18 -23 9 -61 -15 -61 -16 0 -21 8 -23 38 -3 40
14 51 38 23z"/>
<path d="M8534 11959 c-62 -39 -285 -265 -307 -312 -21 -43 -22 -99 -2 -163
23 -76 20 -101 -19 -140 -39 -39 -35 -43 11 -14 38 23 47 51 39 117 -3 27 -8
80 -12 119 l-6 71 87 97 c95 105 176 176 238 207 53 28 67 20 68 -38 l1 -48
11 43 c13 54 -2 92 -36 92 -13 0 -45 -14 -73 -31z"/>
<path d="M4082 11898 c-18 -18 -15 -30 7 -23 34 11 100 -33 193 -128 l89 -91
-3 -166 -3 -165 52 -105 c47 -96 162 -285 168 -278 1 2 -4 46 -11 98 -8 52
-14 113 -15 135 -2 53 -13 72 -65 121 -37 35 -44 48 -44 80 0 22 10 66 22 99
14 42 19 70 14 90 -5 20 -49 72 -129 151 -163 161 -243 214 -275 182z"/>
<path d="M4177 11550 c3 -47 9 -101 15 -120 20 -67 88 -185 142 -245 29 -33
56 -69 59 -80 4 -16 5 -15 6 5 1 18 -16 45 -50 85 -100 118 -158 237 -160 329
-1 28 -5 65 -9 81 -4 17 -5 -7 -3 -55z"/>
<path d="M8547 11508 c-8 -65 -67 -188 -117 -242 -43 -47 -90 -114 -90 -129 0
-5 15 11 33 36 17 25 54 74 81 109 67 88 97 152 104 220 6 72 -3 77 -11 6z"/>
<path d="M5930 11338 c-56 -70 -90 -143 -90 -196 0 -44 27 -108 55 -132 11 -9
8 2 -9 35 -47 87 -31 166 55 280 54 72 45 83 -11 13z"/>
<path d="M6859 11117 c-4 -31 -19 -65 -40 -95 l-32 -47 31 29 c39 36 54 73 50
122 l-3 39 -6 -48z"/>
<path d="M6542 11095 c-40 -17 -90 -55 -73 -55 7 0 21 4 31 10 13 7 21 6 30
-5 15 -18 53 -19 79 -3 15 9 25 9 46 0 24 -11 25 -10 15 7 -14 26 -59 61 -79
61 -9 -1 -31 -7 -49 -15z"/>
<path d="M6049 11083 c-12 -14 -12 -16 1 -11 8 3 28 -6 44 -19 20 -17 39 -23
65 -22 20 2 42 -1 49 -5 23 -14 12 6 -15 28 -61 49 -118 61 -144 29z"/>
<path d="M5644 10437 c10 -7 32 -22 50 -34 72 -51 94 -56 256 -59 85 -2 213
-11 284 -19 102 -13 149 -14 220 -6 50 6 178 13 284 16 166 5 200 8 232 25 47
24 62 43 28 36 -12 -3 -41 -8 -63 -11 -22 -4 -44 -10 -50 -15 -5 -4 -104 -11
-220 -14 -115 -4 -240 -9 -277 -12 -41 -4 -102 0 -159 10 -51 9 -129 16 -173
16 -101 0 -243 24 -381 64 -32 10 -43 11 -31 3z"/>
</g>
</svg>
